<?xml version="1.0" encoding="iso-8859-1"?>
<!-- Generator: Adobe Illustrator 16.2.0, SVG Export Plug-In . SVG Version: 6.00 Build 0)  -->
<!DOCTYPE svg PUBLIC "-//W3C//DTD SVG 1.1//EN" "http://www.w3.org/Graphics/SVG/1.1/DTD/svg11.dtd">
<svg version="1.1" id="&#x421;&#x43B;&#x43E;&#x439;_1"
	 xmlns="http://www.w3.org/2000/svg" xmlns:xlink="http://www.w3.org/1999/xlink" x="0px" y="0px" width="24px" height="24px"
	 viewBox="0 0 24 24" style="enable-background:new 0 0 24 24;" xml:space="preserve">
<g transform="translate(-5 -5)">
	<path style="fill:none;" d="M29,29H5V5h24V29z"/>
	<path style="opacity:0.3;enable-background:new    ;" d="M11,18h12c0.553,0,1-0.447,1-1l0,0c0-0.552-0.447-1-1-1H11
		c-0.553,0-1,0.448-1,1l0,0C10,17.553,10.447,18,11,18z"/>
	<path d="M21.616,16.97l-4.853-5.294c-0.375-0.407-0.346-1.04,0.061-1.413c0.407-0.374,1.039-0.346,1.412,0.061l5.5,6
		c0.363,0.395,0.349,1.005-0.029,1.383l-6,6c-0.008,0.007-0.016,0.016-0.023,0.023c-0.397,0.385-1.032,0.373-1.414-0.023
		c-0.385-0.396-0.373-1.03,0.023-1.414L21.616,16.97z"/>
</g>
</svg>
