<?xml version="1.0" encoding="iso-8859-1"?>
<!-- Generator: Adobe Illustrator 16.2.0, SVG Export Plug-In . SVG Version: 6.00 Build 0)  -->
<!DOCTYPE svg PUBLIC "-//W3C//DTD SVG 1.1//EN" "http://www.w3.org/Graphics/SVG/1.1/DTD/svg11.dtd">
<svg version="1.1" id="&#x421;&#x43B;&#x43E;&#x439;_1"
	 xmlns="http://www.w3.org/2000/svg" xmlns:xlink="http://www.w3.org/1999/xlink" x="0px" y="0px" width="24px" height="24px"
	 viewBox="-5 -5 24 24" style="enable-background:new -5 -5 24 24;" xml:space="preserve">
<g transform="translate(-5 -5)">
	<path style="fill:none;" d="M0,0h24v24H0V0z"/>
	<path style="opacity:0.3;enable-background:new    ;" d="M19,12L19,12c0-0.552-0.447-1-1-1H6c-0.552,0-1,0.448-1,1l0,0
		c0,0.553,0.448,1,1,1h12C18.553,13,19,12.553,19,12z"/>
	<path d="M12.707,17.293c0.396,0.384,0.408,1.017,0.024,1.414c-0.383,0.397-1.017,0.408-1.414,0.024
		c-0.008-0.008-0.016-0.017-0.024-0.024l-6-6c-0.378-0.378-0.392-0.988-0.03-1.383l5.5-6c0.373-0.407,1.006-0.435,1.413-0.061
		c0.407,0.373,0.435,1.006,0.061,1.413L7.384,11.97L12.707,17.293z"/>
</g>
</svg>
