<?xml version="1.0" encoding="iso-8859-1"?>
<!-- Generator: Adobe Illustrator 16.2.0, SVG Export Plug-In . SVG Version: 6.00 Build 0)  -->
<!DOCTYPE svg PUBLIC "-//W3C//DTD SVG 1.1//EN" "http://www.w3.org/Graphics/SVG/1.1/DTD/svg11.dtd">
<svg version="1.1" id="&#x421;&#x43B;&#x43E;&#x439;_1"
	 xmlns="http://www.w3.org/2000/svg" xmlns:xlink="http://www.w3.org/1999/xlink" x="0px" y="0px" width="24px" height="24px"
	 viewBox="0 0 24 24" style="enable-background:new 0 0 24 24;" xml:space="preserve">
<path d="M20,17c0,0.553-0.447,1-1,1H5c-0.552,0-1-0.447-1-1l0,0c0-0.553,0.448-1,1-1h14C19.553,16,20,16.447,20,17L20,17z"/>
<path d="M20,12c0,0.553-0.447,1-1,1H5c-0.552,0-1-0.447-1-1l0,0c0-0.552,0.448-1,1-1h14C19.553,11,20,11.448,20,12L20,12z"/>
<path d="M20,7c0,0.553-0.447,1-1,1H5C4.448,8,4,7.553,4,7l0,0c0-0.552,0.448-1,1-1h14C19.553,6,20,6.448,20,7L20,7z"/>
</svg>
