<?xml version="1.0" encoding="iso-8859-1"?>
<!-- Generator: Adobe Illustrator 16.2.0, SVG Export Plug-In . SVG Version: 6.00 Build 0)  -->
<!DOCTYPE svg PUBLIC "-//W3C//DTD SVG 1.1//EN" "http://www.w3.org/Graphics/SVG/1.1/DTD/svg11.dtd">
<svg version="1.1" id="&#x421;&#x43B;&#x43E;&#x439;_1"
	 xmlns="http://www.w3.org/2000/svg" xmlns:xlink="http://www.w3.org/1999/xlink" x="0px" y="0px" width="24px" height="24px"
	 viewBox="0 0 24 24" style="enable-background:new 0 0 24 24;" xml:space="preserve">
<g>
	<path style="opacity:0.3;enable-background:new    ;" d="M12,3.674L6.921,9.768c-0.412,0.519-1.167,0.606-1.686,0.194
		C4.716,9.55,4.629,8.795,5.042,8.276c0.012-0.015,0.024-0.03,0.037-0.044l6-7.2c0.424-0.509,1.181-0.578,1.69-0.153
		c0.056,0.046,0.106,0.098,0.153,0.153l6,7.2c0.436,0.499,0.385,1.257-0.113,1.693c-0.499,0.437-1.257,0.386-1.693-0.113
		c-0.013-0.015-0.025-0.029-0.037-0.044L12,3.674z"/>
	<path d="M1.8,9h20.4c0.663,0,1.2,0.537,1.2,1.2c0,0.159-0.031,0.316-0.093,0.462l-4.385,10.522c-0.56,1.342-1.87,2.216-3.323,2.216
		H8.4c-1.454,0-2.765-0.874-3.324-2.216L0.694,10.661c-0.255-0.612,0.035-1.314,0.647-1.569C1.486,9.031,1.643,9,1.8,9z M12,18.6
		c1.326,0,2.4-1.074,2.4-2.399s-1.074-2.4-2.4-2.4c-1.326,0-2.4,1.075-2.4,2.4S10.674,18.6,12,18.6z"/>
</g>
</svg>
