<?xml version="1.0" encoding="iso-8859-1"?>
<!-- Generator: Adobe Illustrator 16.2.0, SVG Export Plug-In . SVG Version: 6.00 Build 0)  -->
<!DOCTYPE svg PUBLIC "-//W3C//DTD SVG 1.1//EN" "http://www.w3.org/Graphics/SVG/1.1/DTD/svg11.dtd">
<svg version="1.1" id="Capa_1" xmlns="http://www.w3.org/2000/svg" xmlns:xlink="http://www.w3.org/1999/xlink" x="0px" y="0px"
	 width="24px" height="24px" viewBox="0 0 24 24" style="enable-background:new 0 0 24 24;" xml:space="preserve">
<g>
	<path d="M13.415,12l6.292-6.292c0.391-0.391,0.391-1.024,0-1.415c-0.391-0.391-1.024-0.391-1.415,0L12,10.585L5.708,4.294
		c-0.391-0.391-1.024-0.391-1.415,0c-0.391,0.391-0.391,1.024,0,1.415L10.585,12l-6.292,6.292c-0.391,0.391-0.391,1.024,0,1.415
		C4.489,19.902,4.745,20,5,20s0.512-0.098,0.708-0.293L12,13.415l6.292,6.292C18.487,19.902,18.743,20,18.999,20
		s0.513-0.098,0.708-0.293c0.391-0.392,0.391-1.024,0-1.415L13.415,12z"/>
</g>
</svg>
