<?xml version="1.0" encoding="iso-8859-1"?>
<!-- Generator: Adobe Illustrator 16.2.0, SVG Export Plug-In . SVG Version: 6.00 Build 0)  -->
<!DOCTYPE svg PUBLIC "-//W3C//DTD SVG 1.1//EN" "http://www.w3.org/Graphics/SVG/1.1/DTD/svg11.dtd">
<svg version="1.1" id="&#x421;&#x43B;&#x43E;&#x439;_1"
	 xmlns="http://www.w3.org/2000/svg" xmlns:xlink="http://www.w3.org/1999/xlink" x="0px" y="0px" width="24px" height="24px"
	 viewBox="-1.5 -5.5 24 24" style="enable-background:new -1.5 -5.5 24 24;" xml:space="preserve">
<g>
	<path style="fill:none;" d="M-1.5-5.5h24v24h-24V-5.5z"/>
	<path style="opacity:0.3;enable-background:new    ;" d="M19.238-0.148c0.357-0.421,0.988-0.472,1.41-0.114
		c0.42,0.358,0.471,0.989,0.113,1.41l0,0l-8.5,10c-0.357,0.42-0.988,0.472-1.409,0.113c-0.006-0.004-0.011-0.009-0.017-0.014l-4.5-4
		C5.93,6.873,5.904,6.241,6.279,5.835c0.365-0.396,0.977-0.432,1.385-0.082l3.736,3.32L19.238-0.148L19.238-0.148z"/>
	<path d="M14.238,0.852c0.357-0.421,0.988-0.472,1.41-0.114c0.42,0.358,0.471,0.989,0.113,1.41l-8.5,10
		c-0.358,0.42-0.989,0.472-1.41,0.113c-0.006-0.004-0.011-0.009-0.017-0.014l-4.5-4c-0.419-0.359-0.469-0.99-0.11-1.41
		c0.359-0.419,0.99-0.469,1.41-0.109c0.009,0.008,0.019,0.016,0.028,0.024l3.736,3.32L14.238,0.852L14.238,0.852z"/>
</g>
</svg>
