<?xml version="1.0" encoding="iso-8859-1"?>
<!-- Generator: Adobe Illustrator 16.2.0, SVG Export Plug-In . SVG Version: 6.00 Build 0)  -->
<!DOCTYPE svg PUBLIC "-//W3C//DTD SVG 1.1//EN" "http://www.w3.org/Graphics/SVG/1.1/DTD/svg11.dtd">
<svg version="1.1" id="&#x421;&#x43B;&#x43E;&#x439;_1"
	 xmlns="http://www.w3.org/2000/svg" xmlns:xlink="http://www.w3.org/1999/xlink" x="0px" y="0px" width="24px" height="24px"
	 viewBox="0 0 24 24" style="enable-background:new 0 0 24 24;" xml:space="preserve">
<g>
	<path d="M11,9.5c0,0.829-0.671,1.5-1.5,1.5h-4C4.671,11,4,10.329,4,9.5v-4C4,4.671,4.671,4,5.5,4h4C10.329,4,11,4.671,11,5.5V9.5z"
		/>
	<path style="opacity:0.3;" d="M19.999,18.5c0,0.828-0.672,1.5-1.5,1.5h-4.001c-0.828,0-1.5-0.672-1.5-1.5v-4
		c0-0.829,0.671-1.5,1.5-1.5h4.001c0.828,0,1.5,0.671,1.5,1.5V18.5z"/>
	<path style="opacity:0.3;" d="M11,18.5c0,0.828-0.672,1.5-1.5,1.5h-4C4.671,20,4,19.328,4,18.5v-4C4,13.671,4.671,13,5.5,13h4
		c0.828,0,1.5,0.671,1.5,1.5V18.5z"/>
	<path style="opacity:0.3;" d="M20,9.5c0,0.828-0.672,1.5-1.5,1.5h-4.001c-0.829,0-1.5-0.672-1.5-1.5v-4c0-0.829,0.671-1.5,1.5-1.5
		H18.5C19.328,4,20,4.671,20,5.5V9.5z"/>
</g>
</svg>
