<?xml version="1.0" encoding="iso-8859-1"?>
<!-- Generator: Adobe Illustrator 16.2.0, SVG Export Plug-In . SVG Version: 6.00 Build 0)  -->
<!DOCTYPE svg PUBLIC "-//W3C//DTD SVG 1.1//EN" "http://www.w3.org/Graphics/SVG/1.1/DTD/svg11.dtd">
<svg version="1.1" id="&#x421;&#x43B;&#x43E;&#x439;_1"
	 xmlns="http://www.w3.org/2000/svg" xmlns:xlink="http://www.w3.org/1999/xlink" x="0px" y="0px" width="18px" height="17px"
	 viewBox="0 0 18 17" style="enable-background:new 0 0 18 17;" xml:space="preserve">
<g>
	<path style="opacity:0.3;enable-background:new    ;" d="M11.857,11C11.95,10.723,12,10.426,12,10.119V4.881C12,3.29,10.657,2,9,2
		H8.727C7.221,2,6,3.173,6,4.619h1.09c0-0.868,0.734-1.571,1.637-1.571H9c1.055,0,1.91,0.82,1.91,1.833v5.238
		c0,0.32-0.086,0.62-0.235,0.881h-3.35c-0.154-0.268-0.234-0.572-0.234-0.881V7.5c0-0.434,0.366-0.786,0.818-0.786
		c0.452,0,0.818,0.352,0.818,0.786v1.833h1.091V7.5c0-1.013-0.855-1.833-1.909-1.833C6.855,5.667,6,6.487,6,7.5v2.619
		C6,10.426,6.05,10.723,6.143,11H3c-0.552,0-1-0.447-1-1V1c0-0.552,0.448-1,1-1h12c0.553,0,1,0.448,1,1v9c0,0.553-0.447,1-1,1
		H11.857z"/>
	<path d="M6,8.333v1.786C6,11.71,7.343,13,9,13s3-1.29,3-2.881V8.333l5.207-3.76c0.224-0.162,0.536-0.112,0.698,0.112
		C17.967,4.771,18,4.873,18,4.978V15c0,1.104-0.896,2-2,2H2c-1.104,0-2-0.896-2-2V4.978c0-0.276,0.224-0.5,0.5-0.5
		c0.105,0,0.208,0.033,0.293,0.095L6,8.333z M7.09,9.121L9,10.5l1.91-1.379v0.998c0,1.013-0.855,1.833-1.91,1.833
		c-1.054,0-1.91-0.82-1.91-1.833V9.121z"/>
</g>
</svg>
