<?xml version="1.0" encoding="iso-8859-1"?>
<!-- Generator: Adobe Illustrator 16.2.0, SVG Export Plug-In . SVG Version: 6.00 Build 0)  -->
<!DOCTYPE svg PUBLIC "-//W3C//DTD SVG 1.1//EN" "http://www.w3.org/Graphics/SVG/1.1/DTD/svg11.dtd">
<svg version="1.1" id="&#x421;&#x43B;&#x43E;&#x439;_1"
	 xmlns="http://www.w3.org/2000/svg" xmlns:xlink="http://www.w3.org/1999/xlink" x="0px" y="0px" width="22px" height="22px"
	 viewBox="-4 0 22 22" style="enable-background:new -4 0 22 22;" xml:space="preserve">
<g transform="translate(-5 -1)">
	<path style="opacity:0.3;" d="M7,4v15h10V4H7z"/>
	<path d="M16.167,1H7.833C6.427,1,5.75,1.981,5.75,3.5v17c0,1.52,0.677,2.5,2.083,2.5h8.334c1.405,0,2.083-0.98,2.083-2.5v-17
		C18.25,1.981,17.572,1,16.167,1z M12,22c-0.552,0-1-0.447-1-1s0.448-1,1-1c0.553,0,1,0.447,1,1S12.553,22,12,22z M17,19h-0.139
		H7.139H7V4h0.139H7.14h9.721H17V19z"/>
</g>
</svg>
