<?xml version="1.0" encoding="iso-8859-1"?>
<!-- Generator: Adobe Illustrator 16.2.0, SVG Export Plug-In . SVG Version: 6.00 Build 0)  -->
<!DOCTYPE svg PUBLIC "-//W3C//DTD SVG 1.1//EN" "http://www.w3.org/Graphics/SVG/1.1/DTD/svg11.dtd">
<svg version="1.1" id="&#x421;&#x43B;&#x43E;&#x439;_1"
	 xmlns="http://www.w3.org/2000/svg" xmlns:xlink="http://www.w3.org/1999/xlink" x="0px" y="0px" width="16px" height="16px"
	 viewBox="0 0 16 16" style="enable-background:new 0 0 16 16;" xml:space="preserve">
<path d="M13.5,7H9V2.5C9,2.224,8.776,2,8.5,2h-1C7.224,2,7,2.224,7,2.5V7H2.5C2.224,7,2,7.224,2,7.5v1C2,8.776,2.224,9,2.5,9H7v4.5
	C7,13.776,7.224,14,7.5,14h1C8.776,14,9,13.776,9,13.5V9h4.5C13.776,9,14,8.776,14,8.5v-1C14,7.224,13.776,7,13.5,7z"/>
</svg>
