<?xml version="1.0" encoding="iso-8859-1"?>
<!-- Generator: Adobe Illustrator 16.2.0, SVG Export Plug-In . SVG Version: 6.00 Build 0)  -->
<!DOCTYPE svg PUBLIC "-//W3C//DTD SVG 1.1//EN" "http://www.w3.org/Graphics/SVG/1.1/DTD/svg11.dtd">
<svg version="1.1" id="&#x421;&#x43B;&#x43E;&#x439;_1"
	 xmlns="http://www.w3.org/2000/svg" xmlns:xlink="http://www.w3.org/1999/xlink" x="0px" y="0px" width="24px" height="24px"
	 viewBox="0 0 24 24" style="enable-background:new 0 0 24 24;" xml:space="preserve">
<g>
	<path style="opacity:0.3;enable-background:new    ;" d="M15.246,17.948c-0.542-0.561-0.526-1.455,0.034-1.996
		c0.547-0.529,1.415-0.529,1.962,0l5.647,5.646c0.541,0.561,0.525,1.455-0.035,1.996c-0.547,0.529-1.414,0.529-1.961,0
		L15.246,17.948L15.246,17.948z"/>
	<path d="M10.597,16.95c3.898,0,7.058-3.16,7.058-7.06c0-3.898-3.16-7.059-7.058-7.059c-3.898,0-7.059,3.16-7.059,7.059
		C3.538,13.79,6.699,16.95,10.597,16.95z M10.597,19.773c-5.458,0-9.882-4.425-9.882-9.883s4.424-9.882,9.882-9.882
		c5.458,0,9.882,4.424,9.882,9.882S16.055,19.773,10.597,19.773z"/>
</g>
</svg>
