<?xml version="1.0" encoding="iso-8859-1"?>
<!-- Generator: Adobe Illustrator 16.2.0, SVG Export Plug-In . SVG Version: 6.00 Build 0)  -->
<!DOCTYPE svg PUBLIC "-//W3C//DTD SVG 1.1//EN" "http://www.w3.org/Graphics/SVG/1.1/DTD/svg11.dtd">
<svg version="1.1" id="&#x421;&#x43B;&#x43E;&#x439;_1"
	 xmlns="http://www.w3.org/2000/svg" xmlns:xlink="http://www.w3.org/1999/xlink" x="0px" y="0px" width="24px" height="24px"
	 viewBox="0 0 24 24" style="enable-background:new 0 0 24 24;" xml:space="preserve">
<g>
	<g>
		<path d="M16.25,18c0,0.828,0.672,1.5,1.5,1.5s1.5-0.672,1.5-1.5V6c0-0.829-0.672-1.5-1.5-1.5s-1.5,0.671-1.5,1.5V18z"/>
	</g>
	<g>
		<path d="M10.5,18c0,0.828,0.671,1.5,1.5,1.5c0.828,0,1.5-0.672,1.5-1.5v-7c0-0.829-0.672-1.5-1.5-1.5c-0.829,0-1.5,0.671-1.5,1.5
			V18z"/>
	</g>
	<g>
		<path d="M4.75,18c0,0.828,0.671,1.5,1.5,1.5s1.5-0.672,1.5-1.5v-2c0-0.828-0.671-1.5-1.5-1.5s-1.5,0.672-1.5,1.5V18z"/>
	</g>
</g>
</svg>
