<svg xmlns="http://www.w3.org/2000/svg" width="16" height="9" viewBox="0 0 16 9">
    <path fill-rule="nonzero" d="M8.785 8.962s.288-.03.436-.188c.136-.144.131-.414.131-.414s-.018-1.265.577-1.452c.587-.183 1.341 1.223 2.14 1.764.605.41 1.064.32 1.064.32l2.137-.03s1.117-.068.587-.934c-.043-.071-.308-.641-1.588-1.813-1.34-1.226-1.16-1.027.453-3.148.983-1.292 1.376-2.08 1.253-2.418-.117-.322-.84-.237-.84-.237L12.73.427s-.179-.024-.311.054c-.13.076-.213.254-.213.254s-.38 1-.888 1.85c-1.071 1.794-1.5 1.888-1.675 1.777-.407-.26-.305-1.043-.305-1.6 0-1.738.267-2.462-.521-2.65C8.555.05 8.363.01 7.694.002 6.836-.007 6.11.005 5.698.203c-.274.133-.485.427-.356.444.159.02.519.096.71.352.246.33.237 1.073.237 1.073s.142 2.047-.33 2.3c-.325.175-.77-.18-1.725-1.808A15.033 15.033 0 0 1 3.376.809a.71.71 0 0 0-.199-.264 1.006 1.006 0 0 0-.37-.147L.522.412S.178.422.052.57C-.06.699.043.971.043.971S1.833 5.099 3.86 7.18c1.858 1.908 3.968 1.782 3.968 1.782h.957z"/>
</svg>
